<svg width="60" height="61" viewBox="0 0 60 61" fill="none" xmlns="http://www.w3.org/2000/svg">
<path d="M53.3775 7.19041C52.1395 5.91978 50.3072 5.44641 48.5988 5.94469L8.75969 17.5298C6.95716 18.0306 5.67953 19.4682 5.33537 21.2944C4.98377 23.153 6.21188 25.5123 7.81633 26.499L20.2732 34.1551C21.5508 34.9399 23.1998 34.7431 24.2571 33.6767L38.5214 19.3236C39.2394 18.5762 40.4279 18.5762 41.146 19.3236C41.864 20.0462 41.864 21.2171 41.146 21.9646L26.8569 36.3201C25.7971 37.384 25.5991 39.0408 26.379 40.3264L33.9903 52.9081C34.8816 54.4029 36.4168 55.25 38.1005 55.25C38.2985 55.25 38.5214 55.25 38.7195 55.2251C40.6507 54.9759 42.1859 53.6555 42.7554 51.7869L54.5659 11.9989C55.0859 10.3047 54.6155 8.46103 53.3775 7.19041Z" fill="url(#paint0_linear_12_1202)"/>
<defs>
<linearGradient id="paint0_linear_12_1202" x1="38.3481" y1="-38.7227" x2="71.1854" y2="41.7938" gradientUnits="userSpaceOnUse">
<stop offset="0.00887753" stop-color="#FEDDC0"/>
<stop offset="0.1723" stop-color="#FDA766"/>
<stop offset="0.4204" stop-color="#FD9346"/>
<stop offset="0.5512" stop-color="#FD7F2C"/>
<stop offset="0.651042" stop-color="#FD771F"/>
<stop offset="0.78125" stop-color="#FD7F2C"/>
<stop offset="1" stop-color="#FF6200"/>
</linearGradient>
</defs>
</svg>
