<svg width="61" height="61" viewBox="0 0 61 61" fill="none" xmlns="http://www.w3.org/2000/svg">
<path fill-rule="evenodd" clip-rule="evenodd" d="M29.8271 55.2081C30.1012 55.3513 30.4076 55.4241 30.7141 55.4216C31.0206 55.4192 31.3246 55.344 31.6012 55.1984L40.4317 50.4778C42.9358 49.143 44.8967 47.6504 46.4266 45.9127C49.753 42.1266 51.5695 37.2944 51.5371 32.3118L51.4324 15.8762C51.4225 13.9831 50.1791 12.2939 48.3402 11.6799L31.9126 6.16817C30.9234 5.83325 29.8395 5.84053 28.8678 6.18516L12.5025 11.8935C10.6736 12.5318 9.45264 14.2331 9.46261 16.1286L9.56726 32.5521C9.59965 37.542 11.4784 42.3523 14.8596 46.0995C16.4044 47.813 18.3828 49.2838 20.9144 50.5968L29.8271 55.2081ZM27.4893 35.8913C27.8581 36.2456 28.3365 36.4204 28.8149 36.4155C29.2933 36.4131 29.7692 36.2335 30.133 35.8743L39.7833 26.3604C40.5084 25.6445 40.5009 24.4941 39.7683 23.7878C39.0333 23.0816 37.8497 23.0864 37.1247 23.8024L28.7875 32.0202L25.3739 28.7389C24.6389 28.0326 23.4578 28.0399 22.7302 28.7559C22.0052 29.4719 22.0126 30.6223 22.7477 31.3285L27.4893 35.8913Z" fill="url(#paint0_linear_12_1199)"/>
<defs>
<linearGradient id="paint0_linear_12_1199" x1="37.5748" y1="-38.5509" x2="74.2007" y2="37.7844" gradientUnits="userSpaceOnUse">
<stop offset="0.00887753" stop-color="#FDB777"/>
<stop offset="0.1723" stop-color="#FDA766"/>
<stop offset="0.4204" stop-color="#FD9346"/>
<stop offset="0.5512" stop-color="#FD7F2C"/>
<stop offset="0.651042" stop-color="#FD771F"/>
<stop offset="0.71875" stop-color="#FD7F2C"/>
<stop offset="1" stop-color="#FF6200"/>
</linearGradient>
</defs>
</svg>
