<svg width="61" height="60" viewBox="0 0 61 60" fill="none" xmlns="http://www.w3.org/2000/svg">
<path d="M45.1485 35.5859C44.5075 36.2071 44.2129 37.1056 44.359 37.9867L46.5592 50.1637C46.7449 51.1957 46.3093 52.2402 45.4455 52.8367C44.599 53.4554 43.4729 53.5297 42.5497 53.0347L31.588 47.3174C31.2068 47.1145 30.7836 47.0056 30.3505 46.9932H29.6797C29.4471 47.0279 29.2194 47.1021 29.0115 47.2159L18.0472 52.9604C17.5052 53.2327 16.8914 53.3292 16.29 53.2327C14.8248 52.9555 13.8472 51.5596 14.0872 50.087L16.29 37.9099C16.436 37.0214 16.1415 36.118 15.5005 35.4869L6.56324 26.8244C5.81579 26.0992 5.55591 25.0102 5.89746 24.0277C6.22911 23.0476 7.07556 22.3323 8.09774 22.1714L20.3985 20.3869C21.334 20.2904 22.1557 19.7212 22.5765 18.8797L27.9967 7.76692C28.1254 7.51942 28.2913 7.29172 28.4917 7.09867L28.7145 6.92542C28.8308 6.79672 28.9645 6.6903 29.113 6.60367L29.3827 6.50467L29.8035 6.33142H30.8455C31.7761 6.42795 32.5953 6.98482 33.0235 7.81642L38.5155 18.8797C38.9115 19.689 39.6812 20.2508 40.5697 20.3869L52.8705 22.1714C53.91 22.3199 54.7787 23.0377 55.1227 24.0277C55.447 25.0201 55.1673 26.1091 54.405 26.8244L45.1485 35.5859Z" fill="url(#paint0_linear_12_1196)"/>
<defs>
<linearGradient id="paint0_linear_12_1196" x1="38.8268" y1="-35.9204" x2="68.8809" y2="41.6552" gradientUnits="userSpaceOnUse">
<stop offset="0.00887753" stop-color="#FDB777"/>
<stop offset="0.1723" stop-color="#FDA766"/>
<stop offset="0.4204" stop-color="#FD9346"/>
<stop offset="0.5512" stop-color="#FD7F2C"/>
<stop offset="0.651042" stop-color="#FD771F"/>
<stop offset="0.71875" stop-color="#FD7F2C"/>
<stop offset="1" stop-color="#FF6200"/>
</linearGradient>
</defs>
</svg>
